Coordinates
version=1
nRows=9
nColumns=24
inDegrees=yes

Units are S.I. units (second, meters, Newtons, ...)
Angles are in degrees.

endheader
time	pelvis_tilt	pelvis_list	pelvis_rotation	pelvis_tx	pelvis_ty	pelvis_tz	hip_flexion_r	hip_adduction_r	hip_rotation_r	knee_angle_r	ankle_angle_r	subtalar_angle_r	mtp_angle_r	hip_flexion_l	hip_adduction_l	hip_rotation_l	knee_angle_l	ankle_angle_l	subtalar_angle_l	mtp_angle_l	lumbar_extension	lumbar_bending	lumbar_rotation
      0.67100000	     -2.52173045	      1.65427946	      6.51419417	      0.00265974	      0.98314375	      0.23836460	     33.11496062	     -4.13741777	     -4.73179331	     -4.29934790	     10.42223226	     -5.39546571	      7.82632516	    -17.53847363	      3.09078958	     10.79118914	     -6.26479730	     17.11560574	     -6.17381326	     -3.79045406	     -0.31780100	     -4.67650599	     -4.58726293
      0.67516667	     -2.52363808	      1.46140468	      6.73783774	      0.00897980	      0.98244829	      0.23878528	     33.11622279	     -4.00100926	     -4.60683613	     -5.00449494	     10.51687966	     -5.68944955	      7.83679362	    -17.71516394	      2.76402895	     10.67458361	     -6.59816065	     17.20605936	     -5.82767734	     -3.80806368	     -0.22236742	     -4.45912831	     -4.70193782
      0.67933333	     -2.50504342	      1.27193419	      6.97218164	      0.01531874	      0.98183035	      0.23923881	     33.06539056	     -3.85760240	     -4.46430229	     -5.64793463	     10.44614713	     -6.15885685	      7.86683986	    -17.91236252	      2.43262858	     10.63263472	     -6.92765835	     17.17128506	     -5.67889526	     -3.81011749	     -0.18983955	     -4.28355517	     -4.89286857
      0.68350000	     -2.49352568	      1.06611642	      7.19626389	      0.02175561	      0.98123216	      0.23969995	     33.00485645	     -3.68914895	     -4.34085197	     -6.26433380	     10.36090179	     -6.56157795	      7.90377573	    -18.11870605	      2.08677403	     10.64199945	     -7.22402750	     17.09032203	     -5.58741495	     -3.79847726	     -0.09195906	     -4.05176222	     -5.03771774
      0.68766667	     -2.46991092	      0.84760415	      7.40685366	      0.02823523	      0.98068170	      0.24023626	     32.91040894	     -3.48586673	     -4.18924933	     -6.82210443	     10.11766900	     -7.08817874	      7.97391488	    -18.32683606	      1.72143054	     10.60857740	     -7.53730915	     16.99429321	     -5.46593718	     -3.76224563	     -0.05311247	     -3.84735539	     -5.23741453
      0.69183333	     -2.43926666	      0.63983121	      7.61454015	      0.03475216	      0.98017974	      0.24078353	     32.79773031	     -3.28551691	     -4.06020228	     -7.35315855	      9.82830879	     -7.60664401	      8.08768993	    -18.53127090	      1.36519346	     10.56095930	     -7.87292323	     16.87407959	     -5.34385889	     -3.69315044	      0.01120985	     -3.63750406	     -5.39264139
      0.69600000	     -2.43065731	      0.40490409	      7.80581939	      0.04136858	      0.97968420	      0.24135750	     32.70037496	     -3.05067866	     -3.97501960	     -7.85555811	      9.46757737	     -8.04476342	      8.19511648	    -18.72319788	      0.98462215	     10.52772224	     -8.18222917	     16.70804153	     -5.23350694	     -3.62109264	      0.14045193	     -3.37460177	     -5.51550615
      0.70016667	     -2.40043455	      0.16874444	      7.98822793	      0.04801193	      0.97925417	      0.24200090	     32.56220532	     -2.79246685	     -3.84967991	     -8.30184377	      9.00586042	     -8.62679052	      8.36109611	    -18.91899346	      0.59498858	     10.44255149	     -8.52697987	     16.53190888	     -5.10220707	     -3.49954235	      0.20914845	     -3.15537044	     -5.65243571
      0.70433333	     -2.38340697	     -0.08334255	      8.15285980	      0.05472812	      0.97884195	      0.24267501	     32.43742515	     -2.51008618	     -3.76385695	     -8.72849600	      8.47160478	     -9.14745917	      8.55338198	    -19.10339836	      0.19243380	     10.35319706	     -8.86248689	     16.31271099	     -4.96318008	     -3.35039439	      0.32370181	     -2.89946336	     -5.74700785
